<svg width="102" height="97" viewBox="0 0 102 97" fill="none" xmlns="http://www.w3.org/2000/svg">
<path d="M101.995 77.6836C101.995 81.3919 99.9292 88.5328 95.2927 92.4553C94.3644 93.1694 93.431 92.7664 93.839 91.7259C95.1907 88.4206 98.2868 80.7747 96.8331 79.0149C95.813 77.6785 91.5795 77.7755 87.9683 78.0866C86.3157 78.2957 84.8722 78.3926 83.745 78.6222C82.7095 78.7089 82.4953 77.7908 83.5358 77.0767C84.8722 76.133 86.3157 75.4189 87.9734 74.8936C93.839 73.1389 100.623 74.1948 101.592 75.3169C101.776 75.5312 102 76.133 102 77.6786L101.995 77.6836ZM92.1967 84.284C90.8498 85.3127 89.4355 86.25 87.9632 87.0893C77.1397 93.5927 63.1233 97 50.943 97C31.3414 97 13.8107 89.7723 0.508343 77.6786C-0.62909 76.7502 0.314521 75.4036 1.64578 76.133C15.9785 84.4982 33.7183 89.5581 52.0856 89.5581C64.3648 89.5234 76.5312 87.2129 87.9683 82.7435C88.7946 82.4324 89.7229 82.009 90.5339 81.7132C92.4058 80.8716 94.0533 82.9527 92.1967 84.284ZM60.726 28.0232C60.726 22.7134 60.9351 19.5867 59.1754 16.9037C57.6146 14.6951 54.9266 13.3689 51.1777 13.5781C47.1074 13.8025 42.7362 16.4702 41.6191 21.3617C41.4049 22.4839 40.7469 23.5856 39.3953 23.8254L26.9702 22.2442C26.0827 22.0401 24.7362 21.3617 25.1748 19.5867C27.8424 5.54956 39.839 0.65799 51.1777 0H53.8453C60.068 0 68.0606 1.78014 73.1765 6.44728C79.384 12.2417 78.726 20.0253 78.726 28.4823V48.5128C78.726 54.5214 81.159 57.1839 83.6124 60.3158C84.2754 61.4328 84.4999 62.7488 83.3828 63.6567C80.1706 66.523 76.9108 69.3355 73.605 72.0933C72.7175 72.7717 71.1159 72.8431 70.4936 72.3228C66.5662 69.0329 65.6073 67.2068 63.1743 63.8659C58.9408 68.3086 55.3908 70.762 51.1624 72.0933C48.1888 72.848 45.1307 73.2183 42.0629 73.195C31.4027 73.195 22.9561 66.5488 22.9561 53.4043C22.9561 42.953 28.5157 35.8477 36.7277 32.4864C44.9396 29.1199 56.875 28.0487 60.7209 28.0283L60.726 28.0232ZM58.2879 54.5061C60.9402 50.0583 60.7209 46.4164 60.7209 38.2603C57.4004 38.2603 54.0595 38.4899 51.1777 39.1683C45.8475 40.7138 41.6191 44.07 41.6191 51.1804C41.6191 56.7402 44.5112 60.5249 49.3976 60.5249C50.0708 60.5249 50.6625 60.4433 51.1777 60.2954C54.5951 59.3466 56.7271 57.6328 58.2879 54.5061Z" fill="#4C4C4C"/>
</svg>
