<svg width="88" height="57" viewBox="0 0 88 57" fill="none" xmlns="http://www.w3.org/2000/svg">
<path fill-rule="evenodd" clip-rule="evenodd" d="M13.4035 52.8169C13.3928 52.8377 13.372 52.8794 13.3618 52.9109C12.2358 55.038 10.0248 56.4871 7.50153 56.4871C3.84158 56.4871 0.838776 53.4213 0.838776 49.6364C0.838776 45.8722 3.84158 42.7856 7.50153 42.7856C10.0355 42.7856 12.2566 44.2662 13.372 46.4248C13.4035 46.4665 13.4136 46.4873 13.4451 46.5498C13.4558 46.5605 11.318 48.1035 11.2972 48.0725C11.2865 48.0308 11.2764 47.9993 11.2555 47.9785C10.64 46.4457 9.18069 45.4238 7.50153 45.4553C5.25963 45.4761 3.41393 47.332 3.41393 49.6364C3.41393 51.9616 5.25963 53.8388 7.50153 53.8388C9.12837 53.8388 10.5465 52.8377 11.1925 51.4196C11.224 51.3674 11.2347 51.3257 11.2555 51.284L13.4035 52.8169Z" fill="#A1A1A1"/>
<path fill-rule="evenodd" clip-rule="evenodd" d="M16.1665 42.9111H18.7315V47.6972H25.4679V42.9111H28.0537V56.2265H25.4679V50.3769H18.7315V56.2265H16.1665V42.9111Z" fill="#A1A1A1"/>
<path fill-rule="evenodd" clip-rule="evenodd" d="M64.2571 56.2265V42.9111H73.5685V45.601H66.8534V48.2599H73.0577V50.9189H66.8534V53.5778H74.5172V56.2265H64.2571Z" fill="#A1A1A1"/>
<path fill-rule="evenodd" clip-rule="evenodd" d="M78.1565 56.2265V42.9111H80.7631V53.5778H87.9999V56.2265H78.1565Z" fill="#A1A1A1"/>
<path fill-rule="evenodd" clip-rule="evenodd" d="M50.2637 56.2265H50.1804H47.657V42.9111H47.8445H51.2749L56.9788 50.9189V42.9111H59.5646V56.2265H57.5L50.2637 46.1851V56.2265Z" fill="#A1A1A1"/>
<path fill-rule="evenodd" clip-rule="evenodd" d="M37.8447 45.601L35.5718 50.9189H40.2222L37.8447 45.601ZM34.4036 53.5778L33.215 56.2265H30.1285L36.0304 42.9111H39.6381L45.5816 56.2265H42.4951L41.2964 53.5778H34.4036Z" fill="#A1A1A1"/>
<path fill-rule="evenodd" clip-rule="evenodd" d="M45.7587 37.7823C42.962 39.3994 39.6163 40.3605 36.0516 40.3605C28.7579 40.3605 22.3696 36.3842 18.9145 30.4883C18.9145 30.4609 18.8877 30.4609 18.8877 30.4335C18.8877 30.4061 18.8597 30.4061 18.8597 30.3787L21.6565 28.9259L24.4533 27.4992C24.4813 27.5279 24.5093 27.554 24.5361 27.61C26.9215 31.4755 31.1993 34.0537 36.0516 34.0537C37.6156 34.0537 39.1234 33.7799 40.4671 33.3404C37.478 29.9131 35.6683 25.4165 35.6683 20.5077C35.6683 15.6277 37.4513 11.131 40.4123 7.67505C39.0687 7.20948 37.5876 6.96299 36.0516 6.96299C31.2541 6.96299 26.8119 9.53996 24.3717 13.6806C24.3437 13.708 24.3437 13.7367 24.3437 13.7627L18.7234 10.8571C18.7502 10.8024 18.7782 10.7476 18.8049 10.7189C22.2334 4.71467 28.7032 0.683594 36.0516 0.683594C39.6163 0.683594 42.962 1.64344 45.7587 3.28925C48.5555 1.64344 51.9012 0.683594 55.4646 0.683594C62.8132 0.683594 69.2843 4.71467 72.7115 10.7189C72.7389 10.7476 72.7663 10.8024 72.7937 10.8571L67.1729 13.7627C67.1729 13.7367 67.1729 13.708 67.1455 13.6806C64.7055 9.53996 60.2636 6.96299 55.4646 6.96299C53.9299 6.96299 52.4488 7.20948 51.1052 7.67505C54.0662 11.131 55.8492 15.6277 55.8492 20.5077C55.8492 25.4165 54.0395 29.9131 51.0504 33.3404C52.394 33.7799 53.9019 34.0537 55.4646 34.0537C60.3184 34.0537 64.5959 31.4755 66.9812 27.61C67.0086 27.554 67.0359 27.5279 67.0633 27.4992L69.8594 28.9259L72.6568 30.3787C72.6568 30.4061 72.6294 30.4061 72.6294 30.4335C72.6294 30.4609 72.602 30.4609 72.602 30.4883C69.1473 36.3842 62.7584 40.3605 55.4646 40.3605C51.9012 40.3605 48.5555 39.3994 45.7587 37.7823ZM45.7587 29.9131C43.4549 27.4731 41.9749 24.1554 41.9749 20.5077C41.9749 16.9161 43.3734 13.6532 45.7587 11.2132C48.1441 13.6532 49.5426 16.9161 49.5426 20.5077C49.5426 24.1554 48.0613 27.4731 45.7587 29.9131Z" fill="#A1A1A1"/>
</svg>
