<svg width="93" height="38" viewBox="0 0 93 38" fill="none" xmlns="http://www.w3.org/2000/svg">
<path fill-rule="evenodd" clip-rule="evenodd" d="M0 1.30592H9.88782C12.2554 1.30592 14.5794 1.48275 16.8814 1.85891C19.1612 2.21339 21.3097 3.23127 23.3269 4.86878C25.2123 6.48461 26.6811 8.54305 27.7336 11.0437C28.8079 13.5443 29.3998 16.1118 29.4875 18.7676C29.5314 18.9446 29.5533 19.1439 29.5533 19.3428C29.5533 19.5201 29.5533 19.7192 29.5533 19.9185C29.5533 19.985 29.5533 20.0514 29.5533 20.1178C29.5533 20.162 29.5533 20.2282 29.5533 20.317C29.4875 23.0831 28.9174 25.7389 27.8431 28.3283C26.7909 30.8962 25.2344 32.9985 23.1734 34.6577C21.354 36.0084 19.4245 36.8707 17.3419 37.2698C15.2811 37.6903 13.1545 37.9117 11.0061 38C10.6553 38 10.2825 38 9.9099 38C9.53707 38 9.16445 38 8.76996 38H0V1.30592ZM7.23493 31.3823C7.47612 31.3823 7.73938 31.3823 8.02431 31.4048C8.30925 31.4263 8.61645 31.4263 8.92326 31.4263C9.03302 31.4263 9.12051 31.4263 9.23027 31.4263C9.31776 31.4263 9.40544 31.4263 9.5152 31.4263C9.73432 31.4714 9.93177 31.4929 10.1511 31.4929C10.3702 31.4929 10.5677 31.4929 10.7428 31.4929C11.0936 31.4929 11.4443 31.4714 11.7953 31.4487C12.146 31.4487 12.4968 31.4046 12.8696 31.3821C13.9219 31.294 14.9741 31.0949 16.0047 30.8068C17.0132 30.4971 17.9119 30.0326 18.6574 29.4132C19.8192 28.4174 20.6963 27.0669 21.2882 25.3851C21.8802 23.7032 22.187 21.9545 22.209 20.1397C22.209 20.0954 22.209 20.0514 22.209 20.007C22.209 19.9406 22.209 19.8742 22.209 19.7856C22.209 19.7192 22.209 19.6528 22.209 19.5865C22.209 19.5422 22.209 19.4757 22.209 19.3872C22.187 17.5945 21.8802 15.846 21.3101 14.1862C20.7402 12.5041 19.885 11.132 18.7667 10.0698C17.9557 9.29536 17.013 8.76384 15.9389 8.4762C14.8866 8.18857 13.7902 8.0336 12.6501 7.98924C12.4091 7.94509 12.1458 7.92281 11.9046 7.92281C11.6636 7.92281 11.4004 7.92281 11.1592 7.92281H7.23493V31.3823ZM49.9201 37.402L47.7061 34.7685C46.7632 35.6545 45.6672 36.3848 44.4393 36.9376C43.2117 37.5128 41.9401 37.845 40.6684 37.9558C40.5367 37.9773 40.4053 38 40.2737 38C40.142 38 40.0106 38 39.8792 38C39.5941 38 39.331 37.9775 39.0461 37.9558C38.7611 37.9334 38.4981 37.8892 38.2131 37.8677C37.6647 37.7569 37.1169 37.6022 36.5689 37.4022C36.0207 37.2033 35.5165 36.9602 35.012 36.6505C34.1131 36.0301 33.4118 35.2117 32.8636 34.2159C32.3156 33.1977 31.9867 32.1577 31.8769 31.0953C31.8551 30.962 31.8551 30.8297 31.8551 30.7189C31.8551 30.6081 31.8551 30.4973 31.8551 30.3867C31.8551 30.2986 31.8551 30.2103 31.8551 30.0995C31.8769 29.9887 31.8769 29.8779 31.8769 29.7673C31.8769 29.7231 31.899 29.7006 31.899 29.6792C31.9207 29.634 31.9207 29.6125 31.9207 29.5459C31.9207 29.5017 31.9426 29.4351 31.9426 29.347C31.9646 29.2803 31.9646 29.2137 31.9646 29.1695C32.2496 27.5984 32.9071 26.2929 33.9596 25.252C35.0118 24.212 36.174 23.3045 37.4235 22.486C36.6343 21.6452 35.9985 20.7377 35.4725 19.7636C34.9464 18.8121 34.6831 17.794 34.6831 16.776C34.6831 16.5769 34.6831 16.3775 34.7269 16.1561C34.7488 15.9572 34.7708 15.7356 34.7929 15.5588C34.8366 15.4038 34.8585 15.2711 34.9023 15.1381C34.9462 14.9833 34.99 14.8506 35.0118 14.7175C35.4505 13.3233 36.3055 12.3275 37.5552 11.6856C38.8051 11.0439 40.1202 10.7119 41.5452 10.7119C43.3211 10.7119 44.9434 11.1986 46.4124 12.1726C47.8812 13.124 48.6269 14.5626 48.6269 16.4215V16.8864C48.5171 18.0596 48.0789 19.0773 47.3332 19.9185C46.5878 20.7594 45.7767 21.5119 44.9217 22.1979C44.7243 22.3087 44.527 22.4195 44.3514 22.5743C44.1763 22.707 44.0007 22.8399 43.8253 22.9505L48.2757 28.196C48.5171 27.9744 48.7364 27.753 48.9554 27.5314C49.1749 27.3098 49.3721 27.0894 49.5696 26.8453C50.0297 26.4033 50.4681 25.9378 50.907 25.4732C51.3454 24.986 51.762 24.5215 52.1566 24.0344L55.1163 27.2C54.7873 27.5539 54.4367 27.9076 54.1076 28.2614C53.779 28.6163 53.4499 28.97 53.1212 29.3464C52.7484 29.7002 52.3978 30.0539 52.0688 30.4088C51.7401 30.7627 51.411 31.1163 51.0823 31.4712L55.9495 37.4018L49.9201 37.402ZM37.2921 31.8919C37.577 32.2683 37.8624 32.578 38.1254 32.8211C38.4102 33.0867 38.6953 33.2641 39.0021 33.4191C39.2872 33.5738 39.5503 33.7063 39.8352 33.7729C40.1202 33.8396 40.3832 33.8837 40.6682 33.8837C41.2603 33.8837 41.8081 33.7515 42.3124 33.5299C42.8168 33.2858 43.299 32.9987 43.7156 32.689C44.0882 32.4235 44.5266 32.0471 44.9871 31.5599L40.0104 25.5627C39.9007 25.6283 39.7913 25.7175 39.6597 25.7833C39.5503 25.8499 39.4624 25.938 39.3747 26.0049C38.8486 26.4694 38.3444 26.9792 37.8838 27.5545C37.4017 28.1298 37.0728 28.7277 36.8753 29.3472C36.8314 29.5019 36.7876 29.6569 36.7656 29.8116C36.7218 29.9664 36.7218 30.1438 36.7218 30.2988C36.7218 30.586 36.7656 30.8516 36.8751 31.1171C36.9847 31.3827 37.1388 31.6479 37.2921 31.8919ZM41.2822 20.3834C41.3259 20.3611 41.348 20.339 41.3701 20.317C41.4138 20.2947 41.4355 20.2947 41.5013 20.2505C41.5234 20.2282 41.5671 20.2062 41.5892 20.162C41.6111 20.1399 41.6329 20.1399 41.6769 20.1399C42.2249 19.7417 42.7291 19.3212 43.2115 18.9006C43.6716 18.4578 43.9788 17.8826 44.1321 17.1965V16.6877C44.1321 15.9572 43.8693 15.3597 43.3648 14.9171C42.8826 14.4743 42.3342 14.2087 41.7425 14.1202C41.6986 14.1202 41.6327 14.1202 41.5892 14.1202C41.5234 14.1202 41.4794 14.1202 41.4138 14.1202C41.3919 14.1202 41.348 14.1202 41.3043 14.1202C41.2822 14.1202 41.2164 14.1202 41.1724 14.1202C40.7342 14.1645 40.2957 14.3639 39.9009 14.6955C39.5064 15.0054 39.2652 15.4923 39.2214 16.1341C39.2214 16.1561 39.1996 16.2007 39.1996 16.2449C39.1775 16.2892 39.1775 16.3332 39.1775 16.3996C39.1775 16.4217 39.1556 16.444 39.1556 16.4879C39.1337 16.5323 39.1337 16.5767 39.1337 16.6431C39.1337 17.1963 39.287 17.7276 39.5939 18.1921C39.9007 18.679 40.2297 19.1439 40.5805 19.5865C40.7338 19.7192 40.8435 19.8521 40.9533 19.9848C41.0631 20.1178 41.1724 20.2505 41.2822 20.3834ZM93 18.0152V19.2324C93 22.552 92.4518 25.6506 91.3556 28.5497C90.2594 31.4487 88.1551 33.7952 84.9759 35.5877C83.9676 36.2513 82.8716 36.7382 81.6438 37.1146C80.438 37.4685 79.232 37.734 78.0263 37.8888C77.5875 37.9113 77.1709 37.9554 76.7768 37.9769C76.3596 37.9769 75.9655 37.9994 75.571 37.9994C75.3298 37.9994 75.1105 37.9994 74.8697 37.9994C74.6283 37.9994 74.409 37.9769 74.1676 37.9328C71.2304 37.7563 68.4238 36.937 65.6836 35.4982C62.9651 34.0819 60.7504 32.1569 59.0846 29.744C58.2516 28.461 57.5939 27.0663 57.0894 25.6061C56.5856 24.1448 56.2565 22.6622 56.0813 21.1574C56.0594 20.8693 56.0153 20.5378 55.9934 20.2278C55.9934 19.896 55.9716 19.564 55.9716 19.232C55.9716 15.7129 56.8705 12.3711 58.6901 9.18436C60.51 5.99725 63.0752 3.58494 66.3853 1.94723C67.0868 1.59275 67.8106 1.30551 68.5558 1.08391C69.3011 0.840635 70.0467 0.641315 70.8359 0.442197C71.5811 0.287438 72.3051 0.176638 73.0502 0.110198C73.7952 0.0222804 74.5186 0 75.2199 0C75.2859 0 75.3732 0 75.4831 0C75.5708 0 75.6583 0 75.746 0C78.5962 0.0664399 81.3584 0.752517 84.0555 2.01407C86.7298 3.29751 89.0537 5.0681 91.0051 7.32545L85.7434 11.1984C84.2963 9.75984 82.7835 8.65344 81.1612 7.85657C79.5388 7.08197 77.8068 6.68353 75.9872 6.68353C75.3955 6.68353 74.7814 6.72789 74.1672 6.79433C73.5319 6.88265 72.8959 6.99325 72.2383 7.14841C69.5415 7.98925 67.5244 9.56112 66.1435 11.8624C64.7843 14.1862 64.1046 16.6208 64.1046 19.2322C64.1046 19.4091 64.1046 19.6084 64.1263 19.8298C64.1488 20.0287 64.1923 20.228 64.2142 20.4274C64.2142 20.5382 64.2361 20.649 64.2579 20.7373C64.2798 20.8256 64.2796 20.9364 64.2796 21.047C64.324 21.1357 64.3456 21.2242 64.3675 21.335C64.3894 21.4454 64.3894 21.5562 64.3894 21.6225C64.8717 24.4776 66.0775 26.7347 68.0504 28.351C70.0238 29.9662 72.1506 30.962 74.452 31.2942C74.7592 31.3823 75.1099 31.4265 75.4607 31.4489C75.8114 31.4714 76.1403 31.4714 76.4471 31.4714C78.6399 31.4714 80.5688 30.8735 82.3009 29.7004C84.0109 28.5057 84.8655 26.8238 84.8655 24.6109L84.9753 24.3668H76.0305V18.0152H93Z" fill="#A1A1A1"/>
</svg>
