<svg width="116" height="18" viewBox="0 0 116 18" fill="none" xmlns="http://www.w3.org/2000/svg">
<path d="M2.10415 17.9969H0.475787C0.33992 17.9969 0 17.9969 0 17.7934C0 17.6586 0.0681876 17.5899 0.271733 17.5217C1.76626 17.0459 2.10364 16.2317 2.10364 15.0791V2.92087C2.10364 1.83394 1.76372 1.01925 0.271733 0.478331C0.0681876 0.478331 0 0.342465 0 0.274786C0 0.00356205 0.33992 0.0712408 0.475787 0.0712408H13.9204C16.9762 0.0712408 19.4894 2.51378 19.4894 5.57154C19.4894 8.62929 16.9762 11.0688 13.9204 11.0688H7.12968V15.2114C7.19786 16.2979 7.53677 17.0433 8.96158 17.5201C9.16513 17.5883 9.2328 17.6565 9.2328 17.7919C9.2328 17.9954 8.89339 17.9954 8.75753 17.9954H2.10415V17.9969ZM102.34 11.4097H105.532L102.34 5.97659L101.999 5.43313L99.1499 11.4097H102.34ZM102.34 0.00152659H104.513L113.612 16.0307C113.884 16.4378 114.223 16.8449 114.63 17.0484C114.969 17.3207 115.376 17.3894 115.716 17.5242C115.852 17.5929 115.988 17.6611 115.988 17.7965C115.988 18 115.648 18 115.512 18H107.431C107.296 18 106.887 18 106.887 17.7965C106.887 17.6611 107.023 17.5929 107.16 17.5242C107.567 17.3894 107.838 17.1853 107.975 16.7782C108.111 16.3019 107.975 16.0317 107.635 15.419C107.174 14.439 106.699 13.4657 106.21 12.4992H98.6044L98.5372 12.6346C98.4685 12.9068 97.9266 13.8558 97.5195 14.8761C96.977 15.9625 96.773 16.2337 96.9088 16.7772C96.9775 17.1843 97.3159 17.3878 97.723 17.5237C97.8599 17.5924 97.9266 17.6606 97.9266 17.7954C97.9266 17.999 97.5861 17.999 97.4508 17.999H93.7152C93.5799 17.999 93.2394 17.999 93.2394 17.7954C93.2394 17.6606 93.3081 17.5919 93.5112 17.5237C93.8516 17.3883 94.2577 17.3202 94.5976 17.0479C95.0047 16.8444 95.3451 16.4373 95.6153 16.0302L96.0911 15.0125L101.252 4.21135L100.504 2.92087C99.8266 1.83394 99.1468 1.15512 98.3998 0.747519C98.0604 0.543974 97.7205 0.543974 97.3821 0.408108C97.1785 0.33992 97.1098 0.271733 97.1785 0.135866C97.1785 0 97.3139 0.0681876 97.3821 0H102.34L102.34 0.00152659ZM82.0363 17.9282H82.308C94.8042 17.9282 94.6688 0.0671699 82.308 0.0671699H72.0539C71.8504 0.0671699 71.5115 -0.00101772 71.5115 0.270715C71.5115 0.338394 71.6469 0.47426 71.7822 0.47426C73.2762 0.949538 73.6141 1.76474 73.6833 2.78399V15.215C73.6161 16.3009 73.2762 17.0469 71.7822 17.5232C71.6469 17.5919 71.5115 17.6601 71.5115 17.7954C71.5115 17.999 71.8509 17.999 72.0539 17.999H78.6412V17.9303H82.0363V17.9282ZM82.0363 1.35866C82.9539 1.36228 83.8328 1.72828 84.4818 2.37695C85.1307 3.02562 85.4971 3.90443 85.5011 4.82198V13.1073C85.4973 14.0249 85.1309 14.9038 84.4819 15.5525C83.8329 16.2012 82.9539 16.5671 82.0363 16.5706H78.6386V1.35866H82.0363ZM56.1611 11.4097H59.3527L56.1611 5.97659L55.8212 5.43313L52.9716 11.4097H56.1611ZM56.1611 0.00152659H58.4001L67.5001 16.0307C67.7037 16.4378 68.0436 16.8449 68.4512 17.0484C68.7901 17.3207 69.1987 17.3894 69.6058 17.5242C69.7412 17.5929 69.8765 17.6611 69.8765 17.7965C69.8765 18 69.4694 18 69.3341 18H61.2559C61.1195 18 60.7801 18 60.7801 17.7965C60.7801 17.6611 60.8473 17.5929 61.0508 17.5242C61.3912 17.3894 61.7296 17.1853 61.7983 16.7782C61.9337 16.3019 61.7983 16.0317 61.5266 15.419C61.0508 14.4013 60.5089 13.4497 60.0336 12.4992H52.4256L52.3579 12.6346C52.2902 12.9068 51.8144 13.8558 51.3402 14.8761C50.8649 15.9625 50.5937 16.2337 50.7295 16.7772C50.8654 17.1843 51.1366 17.3878 51.5437 17.5237C51.6791 17.5924 51.8149 17.6606 51.8149 17.7954C51.8149 17.999 51.4755 17.999 51.2725 17.999H47.6041C47.4682 17.999 47.0606 17.999 47.0606 17.7954C47.0606 17.6606 47.1965 17.5919 47.3324 17.5237C47.7395 17.3883 48.0794 17.3202 48.4875 17.0479C48.8264 16.8444 49.2345 16.4373 49.4375 16.0302L49.9128 15.0125L55.1424 4.21135L54.3964 2.92087C53.7176 1.83394 52.9716 1.15512 52.2912 0.747519C51.8841 0.543974 51.6119 0.543974 51.2043 0.408108C51.0679 0.33992 50.9321 0.271733 51.0008 0.135866C51.0695 0 51.2043 0.0681876 51.273 0H56.1622L56.1611 0.00152659ZM33.7503 11.8855C35.3125 12.428 37.2141 12.5633 38.7077 12.0891L44.6166 17.1828L45.0919 17.5899C45.1178 17.6165 45.1375 17.6486 45.1493 17.6838C45.1612 17.719 45.1651 17.7565 45.1605 17.7934C45.1605 17.9969 44.8206 17.9969 44.6843 17.9969H38.4369L33.7513 14.126L29.9476 11.0693V15.2806C30.0163 16.2984 30.4234 17.0459 31.8492 17.5196C31.9851 17.5883 32.0528 17.656 32.0528 17.7914C32.0528 17.9949 31.7128 17.9949 31.5765 17.9949H23.3599C23.1563 17.9949 22.8164 17.9949 22.8164 17.7914C22.8164 17.656 22.9528 17.5878 23.0876 17.5196C24.716 16.9772 24.9195 16.162 24.9892 14.8735V3.12442C24.921 1.90315 24.7175 1.01925 23.0876 0.478331C22.9517 0.478331 22.8164 0.342465 22.8164 0.274786C22.8164 0.00356205 23.1563 0.0712408 23.3599 0.0712408H36.6025C37.3218 0.0681604 38.0347 0.206806 38.7005 0.479261C39.3663 0.751715 39.9718 1.15264 40.4826 1.65915C40.9935 2.16565 41.3995 2.76781 41.6776 3.43125C41.9556 4.09468 42.1003 4.80639 42.1033 5.52574V5.57154C42.1084 7.02358 41.5369 8.41826 40.5142 9.44906C39.4915 10.4799 38.1013 11.0625 36.6493 11.0688H32.324C32.5275 11.4759 33.0028 11.6122 33.4099 11.8163C33.5463 11.8163 33.6134 11.8855 33.7498 11.8855H33.7503ZM33.7503 9.78034H34.2963C36.0616 9.78034 37.5561 7.87821 37.5561 5.43313C37.553 3.05623 36.059 1.15512 34.2963 1.15512H29.9471V9.78034H33.7503ZM11.0001 1.15563H7.12968V9.78085H11.6122C13.4442 9.78085 14.869 7.87872 14.869 5.43364C14.869 3.05725 13.4442 1.15563 11.6122 1.15563H11.0001Z" fill="#A1A1A1"/>
</svg>
