<svg width="63" height="74" viewBox="0 0 63 74" fill="none" xmlns="http://www.w3.org/2000/svg">
<path d="M52.4911 71.031C48.4204 74.9361 43.9759 74.3195 39.6976 72.4697C35.17 70.5789 31.0163 70.4966 26.2395 72.4697C20.2581 75.0183 17.1012 74.2784 13.529 71.031C-6.74119 50.3548 -3.7505 18.8676 19.2612 17.7167C24.8687 18.0044 28.7732 20.7585 32.0547 21.0051C36.9561 20.0186 41.6498 17.1823 46.8835 17.5522C53.1557 18.0455 57.8909 20.5119 61.0062 24.9513C48.0466 32.6381 51.1203 49.5326 63 54.2598C60.6324 60.4257 57.5586 66.5505 52.4495 71.0721L52.4911 71.031ZM31.6393 17.47C31.0163 8.3034 38.5345 0.739907 47.1743 0C48.3789 10.6053 37.4545 18.4977 31.6393 17.47Z" fill="#A1A1A1"/>
</svg>
