<svg width="77" height="73" viewBox="0 0 77 73" fill="none" xmlns="http://www.w3.org/2000/svg">
<path d="M76.9962 58.463C76.9962 61.2537 75.4367 66.6278 71.9367 69.5797C71.2359 70.1172 70.5312 69.8139 70.8393 69.0308C71.8596 66.5434 74.1969 60.7892 73.0995 59.4648C72.3294 58.4591 69.1335 58.5321 66.4074 58.7662C65.1599 58.9236 64.0702 58.9965 63.2192 59.1693C62.4376 59.2345 62.2759 58.5436 63.0614 58.0062C64.0702 57.296 65.1599 56.7586 66.4113 56.3632C70.8393 55.0427 75.9604 55.8373 76.692 56.6818C76.8306 56.843 77 57.296 77 58.4591L76.9962 58.463ZM69.5994 63.4302C68.5827 64.2044 67.515 64.9098 66.4036 65.5415C58.2329 70.4358 47.6519 73 38.457 73C23.6597 73 10.4257 67.5606 0.383749 58.4591C-0.474901 57.7605 0.237432 56.7471 1.2424 57.296C12.0622 63.5914 25.454 67.3994 39.3195 67.3994C48.5891 67.3733 57.7736 65.6344 66.4074 62.2709C67.0312 62.0368 67.732 61.7181 68.3442 61.4955C69.7573 60.8621 71.001 62.4283 69.5994 63.4302ZM45.8422 21.0897C45.8422 17.0936 46 14.7405 44.6716 12.7214C43.4934 11.0592 41.4642 10.0612 38.6341 10.2185C35.5615 10.3874 32.2616 12.3951 31.4184 16.0764C31.2567 16.9209 30.7599 17.75 29.7396 17.9304L20.3599 16.7404C19.6899 16.5869 18.6734 16.0764 19.0045 14.7405C21.0183 4.17647 30.0746 0.495188 38.6341 0H40.6479C45.3455 0 51.3791 1.3397 55.2411 4.85208C59.9271 9.21281 59.4304 15.0706 59.4304 21.4351V36.5096C59.4304 41.0316 61.2671 43.0353 63.1191 45.3923C63.6197 46.2329 63.7891 47.2233 62.9459 47.9066C60.5209 50.0637 58.0601 52.1804 55.5645 54.2558C54.8946 54.7663 53.6855 54.8201 53.2158 54.4285C50.2509 51.9526 49.527 50.5783 47.6904 48.064C44.4945 51.4075 41.8146 53.2539 38.6226 54.2558C36.3778 54.8238 34.0692 55.1024 31.7534 55.0849C23.7059 55.0849 17.3296 50.0831 17.3296 40.1909C17.3296 32.3254 21.5266 26.9782 27.7258 24.4485C33.925 21.915 42.9351 21.1088 45.8383 21.0935L45.8422 21.0897ZM44.0016 41.02C46.0039 37.6727 45.8383 34.9319 45.8383 28.7939C43.3317 28.7939 40.8096 28.9666 38.6341 29.4772C34.6104 30.6403 31.4184 33.1661 31.4184 38.5172C31.4184 42.7014 33.6016 45.5497 37.2903 45.5497C37.7986 45.5497 38.2452 45.4882 38.6341 45.3769C41.2139 44.6629 42.8234 43.3731 44.0016 41.02Z" fill="#A1A1A1"/>
</svg>
