<svg width="83" height="36" viewBox="0 0 83 36" fill="none" xmlns="http://www.w3.org/2000/svg">
<path d="M78.7613 34.3517L66.5177 0.642361L66.5093 0.620117H66.2677L63.7464 7.54731L59.1564 20.1583L59.1456 20.1483C57.5548 18.7447 55.3104 17.8672 52.4838 17.5404L51.6217 17.4514L52.4769 17.3417C57.1383 16.5041 60.2717 13.5602 60.2717 10.0134C60.2717 5.14953 55.697 1.75458 49.1441 1.75458H35.5099V2.00081H39.4717V27.1331L29.8499 0.642361L29.8414 0.620117H29.5998L27.0785 7.54731L17.3539 34.2651L17.2941 34.272C17.1279 34.2924 16.9635 34.3088 16.8009 34.321C16.5562 34.3402 16.313 34.3517 16.0691 34.3517H6.24325L24.9208 2.0008L25.0596 1.75764H2.21626V11.7653H2.45864C2.5016 6.89072 5.34043 2.0008 11.6126 2.0008H19.1795L0.360771 34.5941H25.7132V25.006H25.4708C25.4378 29.2547 23.0293 33.2901 17.7919 34.2014L17.6254 34.2298L21.6141 23.2664H32.7876L36.8139 34.3517H32.8421V34.5941H48.4308V34.3517H44.4421V17.6301H49.0444C53.728 17.6301 56.4142 19.7226 56.4142 23.3692V26.3353C56.4142 26.6621 56.4364 27.14 56.461 27.5396V27.5542L53.9873 34.3502H50.7557V34.5926H57.4451V34.3502H54.2481L56.5009 28.1617C56.5055 28.2215 56.5078 28.2575 56.5078 28.2575L56.5699 28.8152L56.6297 29.1841C57.0056 31.4661 57.8785 33.1436 59.2231 34.1699L59.4164 34.3103C60.4381 35.0206 61.7076 35.3803 63.1918 35.3803C65.1577 35.3803 66.4686 34.8902 67.5509 33.7366L67.409 33.6031C66.4119 34.5235 65.575 34.8963 64.5265 34.8963C62.74 34.8963 61.805 32.7294 61.805 30.5924V26.4366C61.8145 25.4054 61.653 24.3797 61.3271 23.4014L61.2826 23.2725V23.2679H69.4555L73.4817 34.3533H69.51V34.5956H83V34.3533L78.7613 34.3517ZM21.7031 23.024L27.2074 7.90168L32.6994 23.024H21.7031ZM44.4444 17.387V2.0008H47.9575C52.6503 2.0008 55.1279 4.79055 55.1279 10.0655C55.1279 15.6757 53.7058 17.387 49.0444 17.387H44.4444ZM61.1875 23.024L61.1637 22.9642C60.8005 22.0796 60.2718 21.2725 59.6059 20.5863L59.3758 20.3562L59.3512 20.3332L63.8722 7.90168L69.3642 23.024H61.1875Z" fill="#A1A1A1"/>
</svg>
